<svg xmlns="http://www.w3.org/2000/svg" xmlns:xlink="http://www.w3.org/1999/xlink" width="512" zoomAndPan="magnify" viewBox="0 0 384 383.999986" height="512" preserveAspectRatio="xMidYMid meet" version="1.0"><defs><clipPath id="bab1117161"><path d="M 82 10.320312 L 285 10.320312 L 285 363 L 82 363 Z M 82 10.320312 " clip-rule="nonzero"/></clipPath></defs><path fill="#9eafd9" d="M 297.027344 313.574219 L 293.429688 311.542969 L 290.011719 314.035156 C 290.011719 314.035156 282.167969 322.792969 280.875 324.175781 C 279.585938 325.558594 278.753906 334.132812 278.753906 334.132812 C 278.753906 334.132812 283.277344 338.097656 284.105469 338.929688 L 293.519531 338.558594 C 293.519531 338.558594 299.152344 330.90625 303.394531 325.558594 C 307.640625 320.210938 297.027344 313.574219 297.027344 313.574219 Z M 297.027344 313.574219 " fill-opacity="1" fill-rule="nonzero"/><path fill="#1a2539" d="M 299.796875 353.128906 C 299.242188 353.3125 300.164062 350.914062 298.320312 351.007812 C 298.320312 351.007812 298.597656 349.53125 296.933594 349.441406 C 296.933594 349.441406 296.84375 349.441406 296.75 349.53125 C 296.105469 347.226562 295.550781 344.644531 294.535156 341.601562 C 293.613281 338.742188 293.890625 338.929688 293.613281 338.558594 C 293.613281 338.558594 285.675781 334.503906 280.875 324.269531 C 280.875 324.269531 267.863281 332.84375 267.125 333.394531 C 265.832031 334.503906 265.554688 335.515625 265.554688 335.515625 C 265.554688 335.515625 272.292969 345.566406 279.585938 355.15625 L 279.953125 355.617188 L 281.429688 357.554688 L 281.613281 357.828125 L 286.320312 363.824219 C 286.320312 363.824219 286.414062 363.824219 286.597656 363.824219 C 287.796875 363.914062 293.335938 364.101562 298.6875 364.375 C 298.78125 364.375 298.320312 364.375 298.410156 364.375 C 303.582031 364.652344 309.394531 364.835938 310.132812 364.652344 C 310.316406 364.375 312.164062 357.183594 299.796875 353.128906 Z M 299.796875 353.128906 " fill-opacity="1" fill-rule="nonzero"/><path fill="#ffffff" d="M 309.765625 361.886719 L 288.074219 360.964844 L 267.957031 333.121094 C 267.769531 332.933594 267.863281 332.660156 268.046875 332.472656 C 268.234375 332.289062 268.507812 332.382812 268.695312 332.566406 L 288.535156 360.042969 L 309.765625 360.964844 C 310.039062 360.964844 310.226562 361.148438 310.226562 361.425781 C 310.226562 361.609375 310.039062 361.886719 309.765625 361.886719 Z M 309.765625 361.886719 " fill-opacity="1" fill-rule="nonzero"/><path fill="#ffffff" d="M 288.445312 360.6875 C 288.351562 360.6875 288.261719 360.6875 288.167969 360.597656 C 287.984375 360.410156 287.890625 360.136719 288.074219 359.949219 C 292.320312 353.773438 298.964844 352.574219 299.242188 352.574219 C 299.519531 352.574219 299.703125 352.667969 299.796875 352.941406 C 299.796875 353.21875 299.703125 353.402344 299.425781 353.496094 C 299.335938 353.496094 292.96875 354.601562 288.90625 360.503906 C 288.722656 360.597656 288.628906 360.6875 288.445312 360.6875 Z M 288.445312 360.6875 " fill-opacity="1" fill-rule="nonzero"/><path fill="#ffffff" d="M 275.707031 342.894531 C 275.617188 342.894531 275.523438 342.894531 275.429688 342.800781 C 275.246094 342.617188 275.15625 342.339844 275.339844 342.15625 C 275.429688 342.0625 279.953125 335.515625 275.707031 327.3125 C 275.617188 327.125 275.707031 326.851562 275.894531 326.664062 C 276.078125 326.574219 276.355469 326.664062 276.539062 326.851562 C 281.0625 335.515625 276.167969 342.523438 276.167969 342.617188 C 275.984375 342.894531 275.894531 342.894531 275.707031 342.894531 Z M 275.707031 342.894531 " fill-opacity="1" fill-rule="nonzero"/><path fill="#ffffff" d="M 289.550781 349.53125 C 289.367188 349.53125 289.183594 349.347656 289.089844 349.164062 C 289.089844 348.886719 289.183594 348.703125 289.460938 348.609375 L 296.105469 347.410156 C 296.382812 347.410156 296.566406 347.503906 296.660156 347.78125 C 296.660156 348.054688 296.566406 348.242188 296.289062 348.332031 Z M 289.550781 349.53125 " fill-opacity="1" fill-rule="nonzero"/><path fill="#ffffff" d="M 288.8125 347.226562 C 288.628906 347.226562 288.445312 347.042969 288.351562 346.859375 C 288.261719 346.582031 288.445312 346.398438 288.722656 346.304688 L 295.457031 344.828125 C 295.734375 344.738281 295.921875 344.921875 296.011719 345.199219 C 296.105469 345.476562 295.921875 345.660156 295.644531 345.75 L 288.90625 347.226562 Z M 288.8125 347.226562 " fill-opacity="1" fill-rule="nonzero"/><path fill="#f7c5c4" d="M 94.816406 308.59375 C 90.386719 312.652344 86.234375 311.453125 81.894531 315.785156 C 84.574219 322.425781 86.972656 330.816406 86.878906 331.644531 C 86.695312 333.027344 84.386719 335.976562 84.386719 335.976562 C 84.386719 335.976562 87.25 336.898438 87.804688 336.4375 C 88.355469 335.976562 97.125 329.984375 97.125 329.984375 L 100.910156 323.808594 L 100.261719 321.777344 L 99.617188 320.582031 Z M 94.816406 308.59375 " fill-opacity="1" fill-rule="nonzero"/><path fill="#63aadc" d="M 109.398438 330.355469 C 109.121094 329.617188 99.894531 319.75 99.894531 319.75 C 93.617188 327.21875 86.140625 328.878906 86.140625 328.878906 C 86.140625 328.878906 86.140625 328.878906 84.851562 331.277344 C 72.207031 349.441406 76.082031 354.789062 77.1875 356.261719 C 77.1875 356.261719 77.464844 357.644531 78.851562 357.183594 C 80.234375 356.722656 109.769531 331.460938 109.769531 331.460938 Z M 109.398438 330.355469 " fill-opacity="1" fill-rule="nonzero"/><path fill="#ffffff" d="M 77.097656 356.722656 C 77.003906 356.722656 76.820312 356.632812 76.726562 356.539062 C 76.542969 356.355469 76.636719 356.078125 76.820312 355.894531 L 108.476562 329.433594 C 108.660156 329.246094 108.9375 329.339844 109.121094 329.523438 C 109.308594 329.707031 109.214844 329.984375 109.03125 330.167969 L 77.375 356.632812 C 77.375 356.722656 77.1875 356.722656 77.097656 356.722656 Z M 77.097656 356.722656 " fill-opacity="1" fill-rule="nonzero"/><path fill="#ffffff" d="M 84.757812 350.175781 C 84.664062 350.175781 84.480469 350.085938 84.386719 349.992188 C 80.511719 345.289062 77.28125 345.566406 77.1875 345.566406 C 76.914062 345.566406 76.726562 345.382812 76.636719 345.199219 C 76.636719 344.921875 76.820312 344.738281 77.003906 344.644531 C 77.1875 344.644531 80.789062 344.277344 85.035156 349.441406 C 85.21875 349.625 85.125 349.902344 84.941406 350.085938 C 85.035156 350.175781 84.847656 350.175781 84.757812 350.175781 Z M 84.757812 350.175781 " fill-opacity="1" fill-rule="nonzero"/><path fill="#ffffff" d="M 100.261719 337.453125 C 100.078125 337.453125 99.894531 337.359375 99.800781 337.175781 C 99.800781 337.085938 97.125 329.339844 102.847656 323.070312 C 103.03125 322.886719 103.308594 322.886719 103.492188 323.070312 C 103.675781 323.253906 103.675781 323.53125 103.492188 323.714844 C 98.140625 329.523438 100.539062 336.808594 100.632812 336.898438 C 100.722656 337.175781 100.632812 337.359375 100.261719 337.453125 C 100.355469 337.453125 100.261719 337.453125 100.261719 337.453125 Z M 100.261719 337.453125 " fill-opacity="1" fill-rule="nonzero"/><path fill="#ffffff" d="M 85.125 341.417969 L 79.3125 340.773438 C 79.035156 340.773438 78.851562 340.496094 78.941406 340.3125 C 78.941406 340.035156 79.21875 339.851562 79.40625 339.941406 L 85.21875 340.589844 C 85.496094 340.589844 85.679688 340.863281 85.589844 341.050781 C 85.589844 341.234375 85.402344 341.417969 85.125 341.417969 Z M 85.125 341.417969 " fill-opacity="1" fill-rule="nonzero"/><path fill="#ffffff" d="M 86.328125 339.574219 L 80.511719 338.929688 C 80.234375 338.929688 80.050781 338.652344 80.144531 338.46875 C 80.144531 338.191406 80.417969 338.007812 80.605469 338.097656 L 86.417969 338.742188 C 86.695312 338.742188 86.878906 339.019531 86.789062 339.207031 C 86.789062 339.480469 86.511719 339.574219 86.328125 339.574219 Z M 86.328125 339.574219 " fill-opacity="1" fill-rule="nonzero"/><path fill="#ffffff" d="M 279.769531 335.332031 C 279.769531 347.503906 269.800781 357.460938 257.621094 357.460938 L 109.582031 357.460938 C 97.402344 357.460938 87.433594 347.503906 87.433594 335.332031 L 87.433594 37.519531 C 87.433594 25.347656 97.402344 15.390625 109.582031 15.390625 L 257.621094 15.390625 C 269.800781 15.390625 279.769531 25.347656 279.769531 37.519531 Z M 279.769531 335.332031 " fill-opacity="1" fill-rule="nonzero"/><path fill="#ffffff" d="M 289.550781 92.195312 C 289.550781 94.777344 287.523438 96.804688 284.9375 96.804688 L 282.816406 96.804688 C 280.230469 96.804688 278.199219 94.777344 278.199219 92.195312 L 278.199219 63.796875 C 278.199219 61.214844 280.230469 59.1875 282.816406 59.1875 L 284.9375 59.1875 C 287.523438 59.1875 289.550781 61.214844 289.550781 63.796875 Z M 289.550781 92.195312 " fill-opacity="1" fill-rule="nonzero"/><path fill="#ffffff" d="M 289.550781 115.800781 C 289.550781 118.382812 287.523438 120.410156 284.9375 120.410156 L 282.816406 120.410156 C 280.230469 120.410156 278.199219 118.382812 278.199219 115.800781 L 278.199219 104.917969 C 278.199219 102.335938 280.230469 100.308594 282.816406 100.308594 L 284.9375 100.308594 C 287.523438 100.308594 289.550781 102.335938 289.550781 104.917969 Z M 289.550781 115.800781 " fill-opacity="1" fill-rule="nonzero"/><g clip-path="url(#bab1117161)"><path fill="#1a2539" d="M 257.621094 362.53125 L 109.582031 362.53125 C 94.539062 362.53125 82.359375 350.363281 82.359375 335.332031 L 82.359375 37.519531 C 82.359375 22.492188 94.539062 10.320312 109.582031 10.320312 L 257.621094 10.320312 C 272.664062 10.320312 284.84375 22.492188 284.84375 37.519531 L 284.84375 335.242188 C 284.84375 350.269531 272.664062 362.53125 257.621094 362.53125 Z M 109.582031 20.460938 C 100.171875 20.460938 92.511719 28.113281 92.511719 37.519531 L 92.511719 335.242188 C 92.511719 344.644531 100.171875 352.296875 109.582031 352.296875 L 257.621094 352.296875 C 267.03125 352.296875 274.691406 344.644531 274.691406 335.242188 L 274.691406 37.519531 C 274.691406 28.113281 267.03125 20.460938 257.621094 20.460938 Z M 109.582031 20.460938 " fill-opacity="1" fill-rule="nonzero"/></g><path fill="#1a2539" d="M 289.550781 92.195312 C 289.550781 94.777344 287.523438 96.804688 284.9375 96.804688 L 282.816406 96.804688 C 280.230469 96.804688 278.199219 94.777344 278.199219 92.195312 L 278.199219 63.796875 C 278.199219 61.214844 280.230469 59.1875 282.816406 59.1875 L 284.9375 59.1875 C 287.523438 59.1875 289.550781 61.214844 289.550781 63.796875 Z M 289.550781 92.195312 " fill-opacity="1" fill-rule="nonzero"/><path fill="#1a2539" d="M 289.550781 115.800781 C 289.550781 118.382812 287.523438 120.410156 284.9375 120.410156 L 282.816406 120.410156 C 280.230469 120.410156 278.199219 118.382812 278.199219 115.800781 L 278.199219 104.917969 C 278.199219 102.335938 280.230469 100.308594 282.816406 100.308594 L 284.9375 100.308594 C 287.523438 100.308594 289.550781 102.335938 289.550781 104.917969 Z M 289.550781 115.800781 " fill-opacity="1" fill-rule="nonzero"/><path fill="#1a2539" d="M 86.695312 328.695312 L 280.507812 328.695312 C 280.507812 328.695312 278.660156 355.339844 259.558594 357.277344 C 240.453125 359.214844 105.707031 356.261719 105.707031 356.261719 C 105.707031 356.261719 83.003906 349.441406 86.695312 328.695312 Z M 86.695312 328.695312 " fill-opacity="0.4" fill-rule="nonzero"/><path fill="#ffffff" d="M 255.3125 187.070312 L 194.398438 186.703125 C 188.308594 186.703125 183.324219 191.40625 183.230469 197.304688 L 183.140625 210.859375 C 183.140625 216.761719 188.03125 221.554688 194.121094 221.648438 L 228.269531 221.832031 L 250.328125 232.160156 L 243.960938 222.015625 L 254.941406 222.109375 C 261.035156 222.109375 266.019531 217.40625 266.109375 211.503906 L 266.203125 197.953125 C 266.292969 191.957031 261.402344 187.164062 255.3125 187.070312 Z M 255.3125 187.070312 " fill-opacity="1" fill-rule="nonzero"/><path fill="#1a2539" d="M 250.328125 232.527344 C 250.234375 232.527344 250.234375 232.527344 250.144531 232.527344 L 228.179688 222.292969 L 194.121094 222.109375 C 191.078125 222.109375 188.125 220.910156 186 218.789062 C 183.878906 216.667969 182.679688 213.902344 182.679688 210.859375 L 182.769531 197.304688 C 182.769531 194.355469 183.96875 191.496094 186.1875 189.46875 C 188.402344 187.441406 191.261719 186.242188 194.308594 186.242188 L 194.398438 186.242188 L 255.3125 186.609375 C 258.359375 186.609375 261.3125 187.808594 263.433594 189.929688 C 265.554688 192.050781 266.757812 194.816406 266.757812 197.859375 L 266.664062 211.320312 C 266.664062 217.40625 261.496094 222.386719 255.128906 222.386719 L 255.035156 222.386719 L 244.882812 222.292969 L 250.789062 231.789062 C 250.882812 231.972656 250.882812 232.160156 250.699219 232.34375 C 250.605469 232.527344 250.511719 232.527344 250.328125 232.527344 Z M 194.308594 187.164062 C 191.539062 187.164062 188.863281 188.179688 186.832031 190.113281 C 184.800781 192.050781 183.695312 194.632812 183.695312 197.304688 L 183.601562 210.859375 C 183.601562 213.625 184.707031 216.207031 186.648438 218.144531 C 188.675781 220.078125 191.261719 221.1875 194.121094 221.1875 L 228.269531 221.371094 C 228.363281 221.371094 228.363281 221.371094 228.457031 221.371094 L 249.128906 230.960938 L 243.589844 222.109375 C 243.5 221.925781 243.5 221.832031 243.589844 221.648438 C 243.683594 221.464844 243.777344 221.371094 243.960938 221.371094 L 254.941406 221.464844 C 260.757812 221.464844 265.554688 216.945312 265.648438 211.320312 L 265.742188 197.765625 C 265.742188 195 264.632812 192.417969 262.695312 190.484375 C 260.664062 188.546875 258.082031 187.441406 255.21875 187.441406 Z M 194.308594 187.164062 " fill-opacity="1" fill-rule="nonzero"/><path fill="#1a2539" d="M 244.515625 199.148438 L 198.367188 199.148438 C 198.089844 199.148438 197.90625 198.964844 197.90625 198.6875 C 197.90625 198.414062 198.089844 198.226562 198.367188 198.226562 L 244.515625 198.226562 C 244.789062 198.226562 244.976562 198.414062 244.976562 198.6875 C 244.976562 198.964844 244.789062 199.148438 244.515625 199.148438 Z M 244.515625 199.148438 " fill-opacity="1" fill-rule="nonzero"/><path fill="#1a2539" d="M 231.316406 204.40625 L 198.367188 204.40625 C 198.089844 204.40625 197.90625 204.222656 197.90625 203.945312 C 197.90625 203.667969 198.089844 203.484375 198.367188 203.484375 L 231.316406 203.484375 C 231.59375 203.484375 231.777344 203.667969 231.777344 203.945312 C 231.777344 204.222656 231.5 204.40625 231.316406 204.40625 Z M 231.316406 204.40625 " fill-opacity="1" fill-rule="nonzero"/><path fill="#1a2539" d="M 224.394531 210.675781 L 198.367188 210.675781 C 198.089844 210.675781 197.90625 210.492188 197.90625 210.214844 C 197.90625 209.9375 198.089844 209.753906 198.367188 209.753906 L 224.394531 209.753906 C 224.671875 209.753906 224.855469 209.9375 224.855469 210.214844 C 224.855469 210.492188 224.578125 210.675781 224.394531 210.675781 Z M 224.394531 210.675781 " fill-opacity="1" fill-rule="nonzero"/><path fill="#9eafd9" d="M 329.144531 338.558594 C 329.144531 338.558594 334.589844 350.914062 334.589844 353.496094 C 334.496094 356.171875 342.898438 360.410156 342.898438 360.410156 L 353.878906 359.949219 L 354.15625 351.558594 C 354.15625 351.558594 345.480469 334.226562 346.773438 329.617188 C 348.066406 325.007812 343.171875 327.402344 343.171875 327.402344 Z M 329.144531 338.558594 " fill-opacity="1" fill-rule="nonzero"/><path fill="#1a2539" d="M 333.851562 370.921875 C 333.574219 370 334.589844 353.496094 334.589844 353.496094 C 346.035156 355.710938 354.15625 351.558594 354.15625 351.558594 C 354.15625 351.558594 354.15625 351.558594 357.203125 352.851562 C 382.488281 360.226562 383.042969 368.339844 383.136719 370.554688 C 383.136719 370.554688 383.875 372.027344 382.304688 372.675781 C 380.644531 373.320312 334.40625 372.121094 334.40625 372.121094 Z M 333.851562 370.921875 " fill-opacity="1" fill-rule="nonzero"/><path fill="#ffffff" d="M 383.042969 371.105469 L 333.945312 370.460938 C 333.667969 370.460938 333.484375 370.277344 333.484375 370 C 333.484375 369.722656 333.667969 369.539062 333.945312 369.539062 L 383.042969 370.183594 C 383.320312 370.183594 383.503906 370.371094 383.503906 370.644531 C 383.503906 370.832031 383.320312 371.105469 383.042969 371.105469 Z M 383.042969 371.105469 " fill-opacity="1" fill-rule="nonzero"/><path fill="#ffffff" d="M 371.046875 370.832031 C 370.769531 370.832031 370.585938 370.644531 370.585938 370.371094 C 370.585938 362.253906 374.089844 359.859375 374.277344 359.765625 C 374.460938 359.582031 374.738281 359.675781 374.921875 359.859375 C 375.105469 360.042969 375.015625 360.320312 374.828125 360.503906 C 374.738281 360.503906 371.507812 362.808594 371.507812 370.371094 C 371.507812 370.644531 371.324219 370.832031 371.046875 370.832031 Z M 371.046875 370.832031 " fill-opacity="1" fill-rule="nonzero"/><path fill="#ffffff" d="M 347.234375 370.644531 C 347.050781 370.644531 346.863281 370.554688 346.773438 370.371094 C 346.773438 370.277344 343.542969 361.425781 334.128906 360.042969 C 333.851562 360.042969 333.667969 359.765625 333.757812 359.488281 C 333.757812 359.214844 334.035156 359.027344 334.3125 359.121094 C 344.28125 360.597656 347.695312 369.910156 347.695312 370 C 347.789062 370.277344 347.695312 370.460938 347.417969 370.554688 C 347.328125 370.554688 347.328125 370.644531 347.234375 370.644531 Z M 347.234375 370.644531 " fill-opacity="1" fill-rule="nonzero"/><path fill="#ffffff" d="M 364.125 362.808594 C 364.03125 362.808594 363.9375 362.808594 363.847656 362.714844 C 363.664062 362.53125 363.664062 362.253906 363.847656 362.070312 L 368.644531 357.09375 C 368.832031 356.90625 369.105469 356.90625 369.292969 357.09375 C 369.476562 357.277344 369.476562 357.554688 369.292969 357.738281 L 364.492188 362.714844 C 364.308594 362.714844 364.214844 362.808594 364.125 362.808594 Z M 364.125 362.808594 " fill-opacity="1" fill-rule="nonzero"/><path fill="#ffffff" d="M 361.632812 361.980469 C 361.539062 361.980469 361.445312 361.980469 361.355469 361.886719 C 361.171875 361.703125 361.171875 361.425781 361.355469 361.242188 L 366.152344 356.261719 C 366.339844 356.078125 366.617188 356.078125 366.800781 356.261719 C 366.984375 356.445312 366.984375 356.722656 366.800781 356.90625 L 362 361.886719 C 361.910156 361.886719 361.816406 361.980469 361.632812 361.980469 Z M 361.632812 361.980469 " fill-opacity="1" fill-rule="nonzero"/><path fill="#ffffff" d="M 335.050781 319.75 C 334.960938 319.75 334.867188 319.75 334.773438 319.660156 C 334.589844 319.472656 334.5 319.195312 334.683594 319.011719 C 334.773438 318.921875 340.035156 311.359375 335.050781 301.863281 C 334.960938 301.679688 335.050781 301.402344 335.238281 301.21875 C 335.421875 301.125 335.699219 301.21875 335.882812 301.402344 C 341.144531 311.359375 335.511719 319.382812 335.421875 319.472656 C 335.328125 319.75 335.238281 319.75 335.050781 319.75 Z M 335.050781 319.75 " fill-opacity="1" fill-rule="nonzero"/><path fill="#1a2539" d="M 365.414062 120.6875 L 357.109375 139.125 L 356.1875 142.816406 C 356.1875 142.816406 357.109375 144.011719 358.03125 144.382812 C 359.785156 144.933594 363.847656 148.714844 363.847656 148.714844 L 370.308594 147.148438 L 381.660156 125.019531 C 381.75 124.925781 373.074219 120.960938 365.414062 120.6875 Z M 365.414062 120.6875 " fill-opacity="1" fill-rule="nonzero"/><path fill="#ffffff" d="M 365.96875 122.992188 L 359.046875 138.296875 L 358.308594 141.339844 C 358.308594 141.339844 359.046875 142.351562 359.878906 142.628906 C 361.355469 143.089844 365.414062 143.644531 365.414062 143.644531 L 370.121094 144.933594 L 379.628906 126.496094 C 379.535156 126.585938 372.429688 123.269531 365.96875 122.992188 Z M 365.96875 122.992188 " fill-opacity="1" fill-rule="nonzero"/><path fill="#1a2539" d="M 0.585938 159.410156 C 0.585938 159.410156 2.433594 153.878906 10.460938 165.863281 C 14.15625 171.121094 13.878906 173.242188 13.878906 173.242188 Z M 0.585938 159.410156 " fill-opacity="1" fill-rule="nonzero"/><path fill="#fdfdfe" d="M 247.375 346.765625 C 247.28125 346.765625 247.097656 346.765625 247.003906 346.671875 L 241.835938 341.511719 C 241.746094 341.417969 241.746094 341.324219 241.746094 341.140625 C 241.746094 340.957031 241.835938 340.863281 241.835938 340.773438 L 247.003906 335.609375 C 247.191406 335.425781 247.46875 335.425781 247.652344 335.609375 C 247.835938 335.792969 247.835938 336.070312 247.652344 336.253906 L 242.851562 341.050781 L 247.652344 345.84375 C 247.835938 346.027344 247.835938 346.304688 247.652344 346.488281 C 247.652344 346.765625 247.46875 346.765625 247.375 346.765625 Z M 247.375 346.765625 " fill-opacity="1" fill-rule="nonzero"/><path fill="#fdfdfe" d="M 187.292969 346.949219 L 179.355469 346.949219 C 178.339844 346.949219 177.511719 346.121094 177.511719 345.105469 L 177.511719 337.175781 C 177.511719 336.164062 178.339844 335.332031 179.355469 335.332031 L 187.292969 335.332031 C 188.308594 335.332031 189.140625 336.164062 189.140625 337.175781 L 189.140625 345.105469 C 189.046875 346.121094 188.214844 346.949219 187.292969 346.949219 Z M 179.355469 336.347656 C 178.894531 336.347656 178.433594 336.714844 178.433594 337.269531 L 178.433594 345.199219 C 178.433594 345.660156 178.800781 346.121094 179.355469 346.121094 L 187.292969 346.121094 C 187.753906 346.121094 188.214844 345.75 188.214844 345.199219 L 188.214844 337.269531 C 188.214844 336.808594 187.847656 336.347656 187.292969 336.347656 Z M 179.355469 336.347656 " fill-opacity="1" fill-rule="nonzero"/><path fill="#fdfdfe" d="M 117.429688 347.042969 C 117.152344 347.042969 116.96875 346.859375 116.96875 346.582031 L 116.96875 335.792969 C 116.96875 335.515625 117.152344 335.332031 117.429688 335.332031 C 117.707031 335.332031 117.890625 335.515625 117.890625 335.792969 L 117.890625 346.582031 C 117.890625 346.859375 117.613281 347.042969 117.429688 347.042969 Z M 117.429688 347.042969 " fill-opacity="1" fill-rule="nonzero"/><path fill="#fdfdfe" d="M 121.121094 347.042969 C 120.84375 347.042969 120.660156 346.859375 120.660156 346.582031 L 120.660156 335.792969 C 120.660156 335.515625 120.84375 335.332031 121.121094 335.332031 C 121.398438 335.332031 121.582031 335.515625 121.582031 335.792969 L 121.582031 346.582031 C 121.582031 346.859375 121.398438 347.042969 121.121094 347.042969 Z M 121.121094 347.042969 " fill-opacity="1" fill-rule="nonzero"/><path fill="#fdfdfe" d="M 124.996094 347.042969 C 124.71875 347.042969 124.535156 346.859375 124.535156 346.582031 L 124.535156 335.792969 C 124.535156 335.515625 124.71875 335.332031 124.996094 335.332031 C 125.273438 335.332031 125.457031 335.515625 125.457031 335.792969 L 125.457031 346.582031 C 125.457031 346.859375 125.273438 347.042969 124.996094 347.042969 Z M 124.996094 347.042969 " fill-opacity="1" fill-rule="nonzero"/><path fill="#f7c5c4" d="M 50.980469 328.878906 C 44.980469 329.523438 42.394531 325.929688 36.398438 326.851562 C 34.550781 333.765625 31.414062 341.972656 30.859375 342.523438 C 29.84375 343.539062 26.246094 344.554688 26.246094 344.554688 C 26.246094 344.554688 28 346.949219 28.644531 346.949219 C 29.289062 346.949219 39.902344 347.410156 39.902344 347.410156 L 46.640625 344.738281 L 47.378906 342.707031 L 47.5625 341.324219 Z M 50.980469 328.878906 " fill-opacity="1" fill-rule="nonzero"/><path fill="#63aadc" d="M 49.59375 354.972656 C 49.777344 354.140625 48.300781 340.773438 48.300781 340.773438 C 38.796875 342.984375 31.78125 339.851562 31.78125 339.851562 C 31.78125 339.851562 31.78125 339.851562 29.289062 340.957031 C 8.246094 347.871094 8.15625 354.511719 8.15625 356.355469 C 8.15625 356.355469 7.601562 357.554688 8.984375 358.105469 C 10.371094 358.566406 49.226562 356.078125 49.226562 356.078125 Z M 49.59375 354.972656 " fill-opacity="1" fill-rule="nonzero"/><path fill="#ffffff" d="M 8.15625 356.816406 C 7.878906 356.816406 7.695312 356.632812 7.695312 356.355469 C 7.695312 356.078125 7.878906 355.894531 8.15625 355.894531 L 49.410156 353.679688 C 49.6875 353.679688 49.871094 353.867188 49.871094 354.140625 C 49.871094 354.417969 49.6875 354.601562 49.410156 354.601562 L 8.15625 356.816406 C 8.246094 356.816406 8.15625 356.816406 8.15625 356.816406 Z M 8.15625 356.816406 " fill-opacity="1" fill-rule="nonzero"/><path fill="#ffffff" d="M 18.214844 356.261719 C 17.9375 356.261719 17.753906 356.078125 17.753906 355.800781 C 17.476562 349.714844 14.707031 347.964844 14.707031 347.964844 C 14.523438 347.871094 14.429688 347.59375 14.523438 347.320312 C 14.617188 347.042969 14.894531 347.042969 15.167969 347.132812 C 15.261719 347.226562 18.398438 349.070312 18.675781 355.710938 C 18.675781 355.984375 18.492188 356.261719 18.214844 356.261719 Z M 18.214844 356.261719 " fill-opacity="1" fill-rule="nonzero"/><path fill="#ffffff" d="M 38.242188 355.25 C 37.875 355.15625 37.78125 354.878906 37.875 354.695312 C 37.875 354.601562 40.457031 346.859375 48.761719 345.289062 C 49.039062 345.199219 49.226562 345.382812 49.316406 345.660156 C 49.410156 345.9375 49.226562 346.121094 48.949219 346.210938 C 41.101562 347.6875 38.796875 354.972656 38.703125 354.972656 C 38.613281 355.15625 38.425781 355.25 38.242188 355.25 Z M 38.242188 355.25 " fill-opacity="1" fill-rule="nonzero"/><path fill="#ffffff" d="M 23.84375 349.441406 C 23.753906 349.441406 23.660156 349.441406 23.566406 349.347656 L 19.324219 345.382812 C 19.136719 345.199219 19.136719 344.921875 19.324219 344.738281 C 19.507812 344.554688 19.785156 344.554688 19.96875 344.738281 L 24.214844 348.703125 C 24.398438 348.886719 24.398438 349.164062 24.214844 349.347656 C 24.03125 349.347656 23.9375 349.441406 23.84375 349.441406 Z M 23.84375 349.441406 " fill-opacity="1" fill-rule="nonzero"/><path fill="#ffffff" d="M 25.78125 348.703125 C 25.691406 348.703125 25.597656 348.703125 25.507812 348.609375 L 21.261719 344.644531 C 21.078125 344.460938 21.078125 344.183594 21.261719 344 C 21.445312 343.816406 21.722656 343.816406 21.90625 344 L 26.152344 347.964844 C 26.335938 348.148438 26.335938 348.425781 26.152344 348.609375 C 26.058594 348.609375 25.96875 348.703125 25.78125 348.703125 Z M 25.78125 348.703125 " fill-opacity="1" fill-rule="nonzero"/><path fill="#98d8ee" d="M 49.039062 147.703125 L 39.996094 147.515625 L 33.535156 165.496094 L 36.121094 176.746094 L 40.550781 185.042969 L 44.703125 200.257812 C 44.703125 200.257812 40.457031 211.136719 37.78125 217.3125 C 24.398438 248.203125 5.941406 260.832031 29.289062 291.8125 C 29.75 291.8125 29.75 290.152344 29.75 290.152344 L 23.476562 324.453125 C 23.476562 324.453125 40.089844 332.289062 62.054688 333.671875 C 61.316406 333.488281 64.824219 322.792969 64.824219 322.792969 L 72.945312 333.671875 C 72.945312 333.671875 74.328125 335.703125 82.632812 328.878906 C 82.632812 328.140625 82.449219 282.777344 82.449219 282.777344 L 75.804688 276.140625 C 75.804688 276.140625 91.957031 234.832031 86.417969 209.570312 C 82.265625 197.582031 80.144531 191.128906 78.113281 186.332031 C 74.882812 178.867188 74.234375 175.453125 74.234375 175.453125 L 75.160156 153.324219 L 67.039062 141.339844 L 55.960938 140.878906 Z M 49.039062 147.703125 " fill-opacity="1" fill-rule="nonzero"/><path fill="#1a2539" d="M 273.585938 212.796875 L 300.074219 291.445312 L 285.859375 310.53125 C 285.859375 310.53125 303.671875 333.855469 308.011719 339.390625 L 314.195312 333.210938 L 321.578125 350.453125 C 321.578125 350.453125 350.464844 340.589844 357.847656 336.347656 C 358.492188 336.992188 344.28125 297.621094 344.28125 297.621094 C 344.28125 297.621094 370.121094 274.847656 359.695312 252.167969 C 349.265625 229.390625 332.652344 209.753906 332.652344 209.753906 C 332.652344 209.753906 329.605469 199.335938 325.269531 197.492188 C 320.929688 195.644531 291.398438 195.644531 291.398438 195.644531 Z M 273.585938 212.796875 " fill-opacity="1" fill-rule="nonzero"/><path fill="#ffffff" d="M 115.398438 257.789062 L 176.308594 257.421875 C 182.402344 257.421875 187.386719 262.125 187.476562 268.023438 L 187.570312 281.578125 C 187.570312 287.480469 182.679688 292.273438 176.585938 292.367188 L 142.441406 292.550781 L 120.382812 302.878906 L 126.75 292.734375 L 115.765625 292.828125 C 109.675781 292.828125 104.691406 288.125 104.601562 282.222656 L 104.507812 268.671875 C 104.324219 262.585938 109.214844 257.789062 115.398438 257.789062 Z M 115.398438 257.789062 " fill-opacity="1" fill-rule="nonzero"/><path fill="#1a2539" d="M 120.289062 303.246094 C 120.195312 303.246094 120.011719 303.152344 119.921875 303.0625 C 119.828125 302.878906 119.734375 302.691406 119.828125 302.507812 L 125.734375 293.011719 L 115.582031 293.105469 C 109.214844 293.195312 104.046875 288.21875 103.953125 282.039062 L 103.863281 268.484375 C 103.863281 265.535156 105.0625 262.675781 107.183594 260.558594 C 109.308594 258.4375 112.261719 257.238281 115.304688 257.238281 L 176.21875 256.867188 L 176.308594 256.867188 C 179.355469 256.867188 182.21875 257.976562 184.433594 260.09375 C 186.648438 262.214844 187.847656 264.980469 187.847656 267.933594 L 187.9375 281.488281 C 187.9375 287.664062 182.863281 292.644531 176.496094 292.734375 L 142.441406 292.917969 L 120.472656 303.152344 C 120.382812 303.246094 120.289062 303.246094 120.289062 303.246094 Z M 126.566406 292.089844 C 126.75 292.089844 126.84375 292.183594 126.933594 292.367188 C 127.027344 292.550781 127.027344 292.734375 126.933594 292.828125 L 121.398438 301.679688 L 142.070312 292.089844 C 142.164062 292.089844 142.164062 292.089844 142.253906 292.089844 L 176.402344 291.90625 C 182.21875 291.90625 187.015625 287.296875 186.925781 281.578125 L 186.832031 268.023438 C 186.832031 265.257812 185.722656 262.769531 183.695312 260.832031 C 181.664062 258.898438 179.078125 257.882812 176.21875 257.882812 L 176.125 257.882812 L 115.214844 258.25 C 112.351562 258.25 109.675781 259.359375 107.738281 261.292969 C 105.707031 263.230469 104.691406 265.8125 104.691406 268.578125 L 104.785156 282.132812 C 104.785156 287.757812 109.582031 292.273438 115.398438 292.273438 L 115.492188 292.273438 Z M 115.398438 257.789062 Z M 115.398438 257.789062 " fill-opacity="1" fill-rule="nonzero"/><path fill="#1a2539" d="M 164.3125 273.558594 L 118.167969 273.558594 C 117.890625 273.558594 117.707031 273.371094 117.707031 273.097656 C 117.707031 272.820312 117.890625 272.636719 118.167969 272.636719 L 164.3125 272.636719 C 164.589844 272.636719 164.773438 272.820312 164.773438 273.097656 C 164.773438 273.371094 164.496094 273.558594 164.3125 273.558594 Z M 164.3125 273.558594 " fill-opacity="1" fill-rule="nonzero"/><path fill="#1a2539" d="M 164.3125 267.378906 L 118.167969 267.378906 C 117.890625 267.378906 117.707031 267.195312 117.707031 266.917969 C 117.707031 266.640625 117.890625 266.457031 118.167969 266.457031 L 164.3125 266.457031 C 164.589844 266.457031 164.773438 266.640625 164.773438 266.917969 C 164.773438 267.195312 164.496094 267.378906 164.3125 267.378906 Z M 164.3125 267.378906 " fill-opacity="1" fill-rule="nonzero"/><path fill="#1a2539" d="M 151.023438 278.8125 L 118.074219 278.8125 C 117.796875 278.8125 117.613281 278.628906 117.613281 278.351562 C 117.613281 278.074219 117.796875 277.890625 118.074219 277.890625 L 151.023438 277.890625 C 151.300781 277.890625 151.484375 278.074219 151.484375 278.351562 C 151.484375 278.628906 151.300781 278.8125 151.023438 278.8125 Z M 151.023438 278.8125 " fill-opacity="1" fill-rule="nonzero"/><path fill="#1a2539" d="M 144.101562 285.082031 L 118.074219 285.082031 C 117.796875 285.082031 117.613281 284.898438 117.613281 284.621094 C 117.613281 284.34375 117.796875 284.160156 118.074219 284.160156 L 144.101562 284.160156 C 144.378906 284.160156 144.5625 284.34375 144.5625 284.621094 C 144.5625 284.898438 144.378906 285.082031 144.101562 285.082031 Z M 144.101562 285.082031 " fill-opacity="1" fill-rule="nonzero"/><path fill="#f399ac" d="M 284.566406 123.820312 C 284.566406 123.820312 252.082031 140.324219 253.28125 173.148438 C 253.464844 173.332031 255.773438 173.886719 257.621094 175.269531 C 258.265625 175.546875 266.203125 199.980469 266.203125 199.980469 L 268.324219 216.851562 C 268.324219 216.851562 307.363281 218.695312 329.421875 199.980469 L 323.882812 178.957031 L 333.296875 165.863281 L 335.789062 160.515625 L 336.527344 158.210938 C 336.527344 158.210938 329.605469 131.75 307.734375 125.019531 C 299.613281 124.835938 284.566406 123.820312 284.566406 123.820312 Z M 284.566406 123.820312 " fill-opacity="1" fill-rule="nonzero"/><path fill="#f7c5c4" d="M 32.980469 111.558594 L 33.90625 119.578125 C 33.90625 119.578125 30.488281 131.566406 38.519531 134.332031 C 43.132812 135.898438 44.058594 138.664062 44.058594 138.664062 L 44.796875 141.707031 L 41.75 150.007812 L 41.933594 151.203125 C 41.933594 151.203125 51.347656 154.617188 56.976562 146.59375 C 61.316406 139.957031 66.667969 128.339844 66.667969 128.339844 L 63.714844 113.308594 L 50.054688 100.402344 L 45.625 99.664062 Z M 32.980469 111.558594 " fill-opacity="1" fill-rule="nonzero"/><path fill="#f7c5c4" d="M 76.265625 178.867188 C 75.804688 178.867188 71.375 165.3125 71.375 165.3125 C 71.375 165.3125 61.222656 160.703125 59.839844 171.582031 C 58.730469 183.105469 52.269531 186.980469 52.269531 186.980469 L 44.425781 184.949219 L 37.042969 172.042969 L 36.398438 172.320312 L 33.351562 178.773438 L 33.074219 180.433594 C 30.398438 180.0625 19.230469 173.148438 16.738281 171.027344 C 9.449219 162.730469 7.785156 165.957031 7.785156 165.957031 L 7.140625 166.050781 C 7.140625 166.050781 5.109375 164.390625 5.292969 164.390625 C 3.171875 164.851562 5.292969 168.722656 5.480469 168.539062 C 3.355469 169 5.203125 173.519531 5.480469 173.332031 C 3.449219 176.558594 15.816406 187.164062 16.554688 187.164062 C 37.042969 215.929688 46.734375 202.378906 46.273438 202.378906 C 72.113281 209.382812 74.882812 186.980469 74.882812 186.980469 C 74.882812 186.980469 76.726562 178.867188 76.265625 178.867188 Z M 76.265625 178.867188 " fill-opacity="1" fill-rule="nonzero"/><path fill="#9eafd9" d="M 316.039062 92.195312 C 316.039062 92.195312 316.59375 94.59375 315.671875 97.542969 C 314.746094 100.492188 315.484375 110.453125 316.777344 114.230469 C 317.515625 116.535156 316.960938 119.304688 307.179688 120.410156 C 304.503906 120.871094 305.886719 121.332031 305.886719 121.332031 L 307.179688 122.714844 L 307.640625 125.203125 C 307.640625 125.203125 301.273438 144.472656 284.476562 123.914062 C 284.382812 124.097656 289.550781 113.957031 289.550781 113.957031 L 289 112.203125 L 289.828125 110.542969 L 287.613281 110.175781 C 287.613281 110.175781 278.386719 108.238281 284.660156 99.296875 C 287.890625 94.316406 291.214844 93.023438 291.214844 93.023438 L 294.445312 85.558594 L 305.058594 85.925781 L 312.808594 87.03125 L 314.65625 87.492188 Z M 316.039062 92.195312 " fill-opacity="1" fill-rule="nonzero"/><path fill="#9eafd9" d="M 257.621094 175.363281 C 257.621094 175.363281 273.03125 180.617188 284.382812 174.902344 C 284.570312 175.085938 285.121094 177.945312 284.382812 181.539062 C 284.382812 181.539062 339.480469 154.0625 341.417969 154.15625 C 342.160156 154.339844 343.265625 156.183594 342.160156 157.105469 C 341.972656 157.105469 343.359375 158.210938 342.34375 160.332031 C 342.34375 160.515625 343.542969 160.976562 342.621094 163.375 C 342.621094 163.375 343.265625 163.375 343.082031 164.480469 C 342.898438 165.589844 341.511719 167.710938 338.191406 170.289062 C 336.621094 172.136719 328.316406 178.867188 326.191406 177.667969 C 326.007812 177.945312 292.503906 218.511719 265.09375 203.945312 C 262.695312 201.824219 255.773438 191.496094 257.621094 175.363281 Z M 257.621094 175.363281 " fill-opacity="1" fill-rule="nonzero"/><path fill="#9eafd9" d="M 372.800781 147.886719 L 372.800781 150.929688 C 372.800781 150.929688 374.828125 149.546875 376.027344 146.59375 C 376.027344 146.59375 377.230469 144.566406 377.414062 143.089844 C 377.414062 142.90625 378.519531 141.707031 378.796875 140.601562 C 378.984375 140.785156 379.257812 140.417969 379.535156 138.296875 C 379.722656 137.835938 376.492188 128.890625 373.351562 132.765625 C 372.890625 132.949219 370.859375 133.226562 370.859375 135.992188 C 371.046875 135.992188 369.015625 136.269531 368.738281 138.757812 C 368.738281 138.757812 367.816406 139.496094 368.277344 141.523438 C 368.277344 141.707031 368.277344 144.105469 370.398438 144.933594 C 370.675781 145.121094 372.800781 147.886719 372.800781 147.886719 Z M 372.800781 147.886719 " fill-opacity="1" fill-rule="nonzero"/><path fill="#9eafd9" d="M 362 128.15625 C 362 128.15625 363.847656 130.273438 359.417969 134.332031 C 359.230469 134.609375 357.292969 138.480469 357.292969 138.480469 C 357.292969 138.480469 356.648438 124.003906 362 128.15625 Z M 362 128.15625 " fill-opacity="1" fill-rule="nonzero"/><path fill="#9eafd9" d="M 357.109375 143.738281 C 357.109375 143.738281 368.644531 147.148438 369.84375 145.304688 C 370.953125 143.738281 372.335938 144.84375 372.335938 144.84375 L 373.722656 148.53125 L 372.800781 151.019531 C 372.800781 151.019531 361.539062 200.992188 325.269531 183.566406 C 324.808594 183.292969 324.070312 180.15625 324.070312 180.15625 L 342.25 161.714844 L 346.863281 162.363281 Z M 357.109375 143.738281 " fill-opacity="1" fill-rule="nonzero"/><path fill="#1a2539" d="M 294.351562 104.644531 C 294.351562 104.644531 300.351562 102.0625 298.964844 95.238281 C 298.042969 91.550781 297.765625 88.136719 304.042969 89.246094 C 308.472656 90.628906 312.070312 93.671875 316.316406 92.65625 C 320.65625 91.550781 324.898438 86.941406 322.316406 81.777344 C 321.578125 80.210938 321.394531 81.132812 318.164062 81.5 C 316.5 81.5 315.210938 80.761719 314.195312 79.472656 C 313.085938 78.273438 311.609375 77.8125 310.226562 77.902344 C 309.027344 77.628906 308.5625 74.214844 302.84375 76.980469 C 299.613281 78.828125 297.304688 79.5625 295.273438 79.289062 C 293.242188 79.011719 274.507812 83.25 284.660156 99.386719 C 284.84375 98.835938 291.398438 96.066406 294.351562 104.644531 Z M 294.351562 104.644531 " fill-opacity="1" fill-rule="nonzero"/><path fill="#1a2539" d="M 287.429688 110.175781 C 287.429688 110.175781 287.707031 113.21875 289.738281 114.046875 C 289.738281 113.585938 290.199219 110.542969 290.84375 110.175781 C 290.84375 110.359375 288.535156 110.820312 287.429688 110.175781 Z M 287.429688 110.175781 " fill-opacity="1" fill-rule="nonzero"/><path fill="#1a2539" d="M 44.242188 104.089844 C 44.242188 104.089844 47.285156 109.898438 34.273438 112.109375 C 34.273438 112.296875 34.734375 115.0625 34.734375 115.984375 C 34.734375 116.90625 33.996094 120.132812 33.996094 120.132812 C 33.996094 120.132812 21.539062 104.917969 37.964844 100.492188 C 37.78125 100.679688 46.546875 93.761719 56.699219 98.003906 C 59.652344 98.742188 66.390625 99.109375 73.3125 120.132812 C 78.390625 132.765625 79.957031 137.003906 82.726562 141.15625 C 85.496094 145.304688 101.183594 166.050781 92.695312 180.0625 C 90.847656 182.371094 90.847656 182.183594 90.203125 185.320312 C 89.554688 188.363281 86.511719 193.15625 81.433594 192.050781 C 78.390625 191.128906 75.4375 188.179688 72.945312 184.214844 C 71.835938 182.554688 70.636719 181.722656 67.128906 179.878906 C 63.621094 178.035156 52.546875 175.546875 56.054688 148.992188 C 56.054688 137.28125 52.179688 129.8125 56.054688 129.167969 C 56.332031 129.445312 64.636719 130.367188 62.976562 120.871094 C 61.777344 116.261719 55.316406 117.828125 53.933594 121.609375 C 53.65625 121.148438 50.980469 119.578125 51.625 112.847656 C 51.902344 107.59375 46.273438 103.261719 44.242188 104.089844 Z M 44.242188 104.089844 " fill-opacity="1" fill-rule="nonzero"/><path fill="#1a2539" d="M 38.519531 134.148438 C 38.519531 134.148438 39.71875 143.183594 36.210938 151.019531 C 32.703125 158.859375 23.105469 172.226562 33.71875 178.957031 C 33.90625 178.3125 36.949219 171.765625 36.949219 171.765625 C 36.949219 171.765625 32.152344 164.851562 39.074219 156.550781 C 41.65625 151.757812 46.734375 147.148438 47.378906 142.539062 C 47.195312 141.15625 45.808594 135.347656 44.609375 135.160156 C 43.320312 135.070312 42.671875 135.714844 38.519531 134.148438 Z M 38.519531 134.148438 " fill-opacity="1" fill-rule="nonzero"/><path fill="#1a2539" d="M 51.164062 130.460938 C 51.164062 130.460938 49.503906 133.6875 44.703125 135.253906 C 39.902344 136.820312 42.582031 138.664062 42.582031 138.664062 C 42.582031 138.664062 49.039062 138.480469 51.164062 130.460938 Z M 51.164062 130.460938 " fill-opacity="1" fill-rule="nonzero"/><path fill="#1a2539" d="M 297.582031 113.769531 C 297.582031 113.769531 300.8125 119.488281 307.273438 120.410156 C 307.085938 120.59375 307.273438 122.714844 307.273438 122.714844 C 307.273438 122.714844 298.964844 122.804688 297.582031 113.769531 Z M 297.582031 113.769531 " fill-opacity="1" fill-rule="nonzero"/><path fill="#1a2539" d="M 23.476562 325.191406 C 23.476562 325.191406 23.382812 325.191406 23.476562 325.191406 C 23.105469 325.097656 23.015625 324.914062 23.015625 324.636719 L 45.625 202.007812 C 45.71875 201.730469 45.902344 201.640625 46.179688 201.640625 C 46.457031 201.730469 46.640625 201.917969 46.546875 202.191406 L 23.9375 324.820312 C 23.84375 325.007812 23.660156 325.191406 23.476562 325.191406 Z M 23.476562 325.191406 " fill-opacity="1" fill-rule="nonzero"/><path fill="#1a2539" d="M 62.054688 333.949219 C 61.683594 333.855469 61.59375 333.671875 61.59375 333.394531 L 76.542969 271.804688 C 76.636719 271.527344 76.820312 271.4375 77.097656 271.4375 C 77.375 271.527344 77.464844 271.714844 77.464844 271.988281 L 62.515625 333.582031 C 62.421875 333.765625 62.238281 333.949219 62.054688 333.949219 Z M 62.054688 333.949219 " fill-opacity="1" fill-rule="nonzero"/><path fill="#1a2539" d="M 13.785156 173.058594 C 13.691406 173.058594 13.507812 173.058594 13.414062 172.964844 L 0.3125 159.59375 C 0.125 159.410156 0.125 159.132812 0.3125 158.949219 C 0.496094 158.765625 0.773438 158.765625 0.957031 158.949219 L 14.0625 172.320312 C 14.246094 172.503906 14.246094 172.78125 14.0625 172.964844 C 14.0625 173.058594 13.878906 173.058594 13.785156 173.058594 Z M 13.785156 173.058594 " fill-opacity="1" fill-rule="nonzero"/><path fill="#1a2539" d="M 10.832031 174.625 C 10.738281 174.625 10.648438 174.625 10.554688 174.53125 C 5.941406 170.289062 3.910156 167.15625 4.371094 165.3125 C 4.648438 164.480469 5.292969 164.113281 5.664062 164.019531 C 5.941406 163.929688 6.125 164.113281 6.21875 164.390625 C 6.308594 164.667969 6.125 164.851562 5.847656 164.941406 C 5.753906 164.941406 5.386719 165.035156 5.203125 165.589844 C 5.015625 166.234375 5.203125 168.445312 11.109375 173.886719 C 11.292969 174.070312 11.292969 174.347656 11.109375 174.53125 C 11.015625 174.625 10.925781 174.625 10.832031 174.625 Z M 10.832031 174.625 " fill-opacity="1" fill-rule="nonzero"/><path fill="#1a2539" d="M 8.984375 176.746094 C 8.894531 176.746094 8.710938 176.746094 8.710938 176.652344 C 5.386719 173.425781 3.910156 171.027344 4.371094 169.460938 C 4.648438 168.632812 5.386719 168.355469 5.753906 168.261719 C 6.03125 168.171875 6.21875 168.355469 6.308594 168.632812 C 6.308594 168.90625 6.21875 169.09375 5.941406 169.183594 C 5.941406 169.183594 5.386719 169.277344 5.292969 169.738281 C 5.109375 170.289062 5.203125 171.949219 9.449219 176.007812 C 9.632812 176.191406 9.632812 176.46875 9.449219 176.652344 C 9.171875 176.652344 9.078125 176.746094 8.984375 176.746094 Z M 8.984375 176.746094 " fill-opacity="1" fill-rule="nonzero"/><path fill="#1a2539" d="M 55.59375 204.035156 C 42.304688 204.035156 26.429688 194.355469 19.324219 189.5625 C 9.355469 182.183594 4.277344 176.835938 4.648438 173.980469 C 4.742188 173.148438 5.292969 172.78125 5.570312 172.597656 C 5.847656 172.503906 6.03125 172.597656 6.125 172.871094 C 6.21875 173.148438 6.125 173.332031 5.847656 173.425781 C 5.847656 173.425781 5.480469 173.609375 5.480469 174.070312 C 5.386719 175.269531 6.492188 178.957031 19.785156 188.730469 C 28.273438 194.539062 49.503906 207.265625 63.253906 201.640625 C 69.066406 199.242188 72.757812 193.800781 74.421875 185.320312 C 74.511719 185.042969 74.699219 184.949219 74.972656 184.949219 C 75.25 185.042969 75.34375 185.226562 75.34375 185.503906 C 73.683594 194.261719 69.714844 199.980469 63.621094 202.46875 C 61.128906 203.574219 58.453125 204.035156 55.59375 204.035156 Z M 55.59375 204.035156 " fill-opacity="1" fill-rule="nonzero"/><path fill="#1a2539" d="M 46.917969 152.496094 C 42.855469 152.496094 39.625 150.652344 39.625 150.652344 C 39.441406 150.558594 39.351562 150.28125 39.441406 150.007812 C 39.535156 149.820312 39.8125 149.730469 40.089844 149.820312 C 40.550781 150.097656 50.609375 155.722656 56.792969 145.582031 C 56.886719 145.394531 57.253906 145.304688 57.4375 145.394531 C 57.625 145.488281 57.714844 145.855469 57.625 146.042969 C 54.484375 151.113281 50.425781 152.496094 46.917969 152.496094 Z M 46.917969 152.496094 " fill-opacity="1" fill-rule="nonzero"/><path fill="#1a2539" d="M 39.441406 127.417969 C 37.410156 127.417969 36.210938 127.046875 35.660156 126.125 C 35.105469 125.203125 35.195312 123.914062 36.027344 121.882812 C 37.503906 118.382812 37.597656 117.550781 37.597656 117.367188 C 37.503906 117.183594 37.597656 116.996094 37.6875 116.90625 C 37.875 116.722656 38.148438 116.722656 38.335938 116.90625 C 38.519531 117.089844 38.886719 117.550781 36.765625 122.253906 C 36.027344 123.914062 35.933594 124.925781 36.304688 125.574219 C 36.671875 126.125 37.6875 126.402344 39.351562 126.402344 C 39.625 126.402344 39.8125 126.585938 39.8125 126.863281 C 39.8125 127.140625 39.625 127.417969 39.441406 127.417969 Z M 39.441406 127.417969 " fill-opacity="1" fill-rule="nonzero"/><path fill="#1a2539" d="M 39.8125 130 C 39.535156 130 39.441406 130 39.441406 130 C 39.164062 130 38.980469 129.722656 38.980469 129.539062 C 38.980469 129.261719 39.257812 129.078125 39.441406 129.078125 C 39.625 129.078125 44.796875 129.445312 45.902344 125.296875 C 45.996094 125.019531 46.179688 124.925781 46.457031 124.925781 C 46.734375 125.019531 46.824219 125.203125 46.824219 125.480469 C 45.71875 129.628906 41.195312 130 39.8125 130 Z M 39.8125 130 " fill-opacity="1" fill-rule="nonzero"/><path fill="#1a2539" d="M 58.730469 126.035156 C 58.453125 126.035156 58.269531 125.847656 58.269531 125.664062 C 58.175781 125.113281 58.085938 125.019531 57.992188 124.925781 C 57.808594 124.835938 57.4375 124.925781 57.253906 125.019531 C 56.976562 125.113281 56.609375 125.203125 56.332031 125.019531 C 56.238281 124.925781 56.148438 124.742188 56.238281 124.558594 C 56.976562 121.238281 59.285156 120.960938 59.378906 120.960938 C 59.652344 120.960938 59.839844 121.148438 59.929688 121.332031 C 59.929688 121.609375 59.746094 121.792969 59.5625 121.882812 C 59.46875 121.882812 58.085938 122.070312 57.4375 124.003906 C 57.808594 123.914062 58.269531 123.820312 58.640625 124.097656 C 59.007812 124.375 59.285156 124.835938 59.285156 125.480469 C 59.285156 125.757812 59.101562 126.035156 58.730469 126.035156 C 58.824219 126.035156 58.824219 126.035156 58.730469 126.035156 Z M 58.730469 126.035156 " fill-opacity="1" fill-rule="nonzero"/><path fill="#f05053" d="M 249.773438 51.71875 C 242.761719 49.320312 236.945312 54.394531 235.929688 55.40625 C 234.914062 54.394531 229.101562 49.320312 222.085938 51.71875 C 214.335938 54.394531 220.054688 69.789062 235.929688 78.734375 L 235.929688 78.828125 L 235.929688 78.734375 C 251.804688 69.882812 257.527344 54.394531 249.773438 51.71875 Z M 249.773438 51.71875 " fill-opacity="1" fill-rule="nonzero"/><path fill="#1a2539" d="M 256.972656 95.792969 C 256.882812 95.792969 256.882812 95.792969 256.789062 95.792969 L 234.824219 85.558594 L 216.457031 85.371094 C 213.410156 85.371094 210.457031 84.175781 208.335938 82.054688 C 206.214844 79.933594 205.011719 77.167969 205.011719 74.125 L 205.105469 51.441406 C 205.105469 45.265625 210.367188 40.378906 216.734375 40.378906 L 255.496094 40.746094 C 258.542969 40.746094 261.496094 41.945312 263.617188 44.066406 C 265.742188 46.1875 266.941406 48.953125 266.941406 51.996094 L 266.847656 74.675781 C 266.847656 80.761719 261.679688 85.742188 255.3125 85.742188 L 255.21875 85.742188 L 251.527344 85.648438 L 257.433594 95.144531 C 257.527344 95.332031 257.527344 95.515625 257.34375 95.699219 C 257.25 95.699219 257.066406 95.792969 256.972656 95.792969 Z M 216.550781 41.207031 C 210.734375 41.207031 205.9375 45.726562 205.9375 51.351562 L 205.84375 74.03125 C 205.84375 76.796875 206.953125 79.378906 208.890625 81.316406 C 210.917969 83.25 213.503906 84.359375 216.363281 84.359375 L 234.824219 84.542969 C 234.914062 84.542969 234.914062 84.542969 235.007812 84.542969 L 255.679688 94.132812 L 250.144531 85.28125 C 250.050781 85.097656 250.050781 84.910156 250.144531 84.820312 C 250.234375 84.636719 250.421875 84.542969 250.511719 84.542969 L 255.035156 84.636719 L 255.128906 84.636719 C 260.941406 84.636719 265.648438 80.117188 265.742188 74.492188 L 265.832031 51.8125 C 265.832031 49.042969 264.726562 46.464844 262.789062 44.527344 C 260.757812 42.589844 258.171875 41.484375 255.3125 41.484375 L 216.550781 41.207031 C 216.640625 41.207031 216.550781 41.207031 216.550781 41.207031 Z M 216.550781 41.207031 " fill-opacity="1" fill-rule="nonzero"/><path fill="#f05053" d="M 121.027344 129.078125 C 128.042969 126.679688 133.855469 131.75 134.871094 132.765625 C 135.886719 131.75 141.699219 126.679688 148.714844 129.078125 C 156.46875 131.75 150.746094 147.148438 134.871094 156.089844 L 134.871094 156.183594 L 134.871094 156.089844 C 118.996094 147.148438 113.273438 131.75 121.027344 129.078125 Z M 121.027344 129.078125 " fill-opacity="1" fill-rule="nonzero"/><path fill="#1a2539" d="M 113.828125 173.058594 C 113.738281 173.058594 113.550781 172.964844 113.460938 172.871094 C 113.367188 172.6875 113.273438 172.503906 113.367188 172.320312 L 119.273438 162.824219 L 115.582031 162.914062 C 109.214844 162.914062 104.046875 158.027344 103.953125 151.851562 L 103.863281 129.078125 C 103.863281 126.125 105.0625 123.269531 107.183594 121.148438 C 109.308594 119.027344 112.261719 117.828125 115.304688 117.828125 L 154.066406 117.457031 L 154.160156 117.457031 C 160.527344 117.457031 165.695312 122.4375 165.695312 128.523438 L 165.789062 151.296875 C 165.789062 154.246094 164.589844 157.105469 162.464844 159.226562 C 160.34375 161.347656 157.390625 162.546875 154.34375 162.546875 L 135.980469 162.730469 L 114.015625 172.964844 C 113.921875 173.058594 113.828125 173.058594 113.828125 173.058594 Z M 120.105469 161.992188 C 120.289062 161.992188 120.382812 162.085938 120.472656 162.269531 C 120.566406 162.453125 120.566406 162.636719 120.472656 162.730469 L 114.9375 171.582031 L 135.609375 161.992188 C 135.703125 161.992188 135.703125 161.992188 135.792969 161.992188 L 154.253906 161.808594 C 157.113281 161.808594 159.789062 160.703125 161.726562 158.765625 C 163.757812 156.828125 164.773438 154.246094 164.773438 151.480469 L 164.683594 128.707031 C 164.683594 123.082031 159.882812 118.566406 154.066406 118.566406 L 153.976562 118.566406 L 115.214844 118.933594 C 112.351562 118.933594 109.675781 120.039062 107.738281 121.976562 C 105.707031 123.914062 104.691406 126.496094 104.691406 129.261719 L 104.785156 152.035156 C 104.785156 157.660156 109.582031 162.175781 115.398438 162.175781 L 115.492188 162.175781 Z M 115.398438 118.382812 Z M 115.398438 118.382812 " fill-opacity="1" fill-rule="nonzero"/><path fill="#1a2539" d="M 288.261719 107.132812 C 288.167969 107.132812 288.167969 107.132812 288.074219 107.132812 C 287.796875 107.039062 287.707031 106.761719 287.796875 106.578125 C 287.984375 106.117188 288.261719 105.839844 288.628906 105.65625 C 289.367188 105.378906 290.105469 105.65625 290.75 105.933594 C 290.75 105.933594 290.75 105.933594 290.84375 105.933594 C 290.660156 105.378906 290.382812 104.917969 290.011719 104.644531 C 289.089844 103.996094 287.707031 104.457031 287.707031 104.457031 C 287.429688 104.550781 287.246094 104.367188 287.152344 104.183594 C 287.058594 103.90625 287.246094 103.722656 287.429688 103.628906 C 287.523438 103.628906 289.183594 103.074219 290.476562 103.90625 C 291.214844 104.367188 291.675781 105.289062 291.765625 106.488281 C 291.765625 106.578125 291.765625 106.761719 291.675781 106.855469 C 291.304688 107.222656 290.84375 107.039062 290.382812 106.761719 C 289.921875 106.578125 289.367188 106.300781 289 106.488281 C 288.90625 106.488281 288.8125 106.578125 288.628906 106.949219 C 288.628906 107.039062 288.445312 107.132812 288.261719 107.132812 Z M 288.261719 107.132812 " fill-opacity="1" fill-rule="nonzero"/><path fill="#1a2539" d="M 311.792969 109.898438 C 311.609375 109.898438 311.425781 109.804688 311.332031 109.53125 C 311.242188 109.253906 311.425781 109.070312 311.703125 108.976562 C 312.253906 108.792969 312.992188 108.515625 313.085938 108.054688 C 313.179688 107.5 312.625 106.671875 311.242188 105.472656 C 310.226562 104.550781 310.039062 101.507812 310.039062 100.863281 C 310.039062 100.585938 310.226562 100.402344 310.503906 100.402344 C 310.777344 100.402344 310.964844 100.585938 310.964844 100.863281 C 310.964844 102.246094 311.332031 104.367188 311.886719 104.828125 C 312.625 105.472656 314.285156 106.949219 314.007812 108.332031 C 313.824219 109.070312 313.179688 109.621094 311.980469 109.898438 C 311.886719 109.898438 311.792969 109.898438 311.792969 109.898438 Z M 311.792969 109.898438 " fill-opacity="1" fill-rule="nonzero"/><path fill="#1a2539" d="M 309.949219 113.679688 C 309.300781 113.679688 308.65625 113.585938 308.011719 113.308594 C 305.886719 112.386719 305.242188 110.175781 305.148438 110.082031 C 305.058594 109.804688 305.242188 109.621094 305.425781 109.53125 C 305.703125 109.4375 305.886719 109.621094 305.980469 109.804688 C 305.980469 109.804688 306.625 111.742188 308.289062 112.480469 C 309.488281 113.035156 310.871094 112.847656 312.625 112.109375 C 312.902344 112.019531 313.085938 112.109375 313.269531 112.296875 C 313.363281 112.480469 313.269531 112.757812 313.085938 112.941406 C 311.980469 113.402344 310.964844 113.679688 309.949219 113.679688 Z M 309.949219 113.679688 " fill-opacity="1" fill-rule="nonzero"/><path fill="#1a2539" d="M 308.289062 103.535156 C 308.101562 103.535156 308.011719 103.445312 307.917969 103.351562 C 306.71875 101.691406 305.609375 100.863281 304.6875 100.953125 C 303.765625 100.953125 303.304688 101.875 303.210938 101.875 C 303.117188 102.0625 302.84375 102.152344 302.566406 102.0625 C 302.378906 101.96875 302.289062 101.691406 302.378906 101.414062 C 302.378906 101.324219 303.117188 100.125 304.59375 100.03125 C 305.886719 99.941406 307.273438 100.953125 308.65625 102.890625 C 308.839844 103.074219 308.75 103.351562 308.5625 103.535156 C 308.472656 103.535156 308.378906 103.535156 308.289062 103.535156 Z M 308.289062 103.535156 " fill-opacity="1" fill-rule="nonzero"/><path fill="#1a2539" d="M 312.53125 103.261719 C 312.441406 103.261719 312.441406 103.261719 312.347656 103.261719 C 312.070312 103.167969 311.980469 102.890625 312.070312 102.613281 C 312.164062 102.335938 312.808594 101.046875 313.640625 100.769531 C 313.917969 100.679688 314.285156 100.679688 314.5625 101.046875 C 314.746094 101.230469 314.746094 101.507812 314.5625 101.691406 C 314.378906 101.875 314.101562 101.875 313.917969 101.691406 C 313.824219 101.601562 313.824219 101.601562 313.734375 101.601562 C 313.457031 101.691406 312.992188 102.429688 312.808594 102.890625 C 312.902344 103.074219 312.71875 103.261719 312.53125 103.261719 Z M 312.53125 103.261719 " fill-opacity="1" fill-rule="nonzero"/><path fill="#1a2539" d="M 294.628906 104.550781 C 294.445312 104.550781 294.257812 104.457031 294.167969 104.183594 C 294.074219 103.90625 294.257812 103.722656 294.445312 103.628906 C 294.445312 103.628906 294.535156 103.628906 294.628906 103.535156 C 296.75 103.167969 298.226562 102.246094 298.875 100.863281 C 299.703125 99.109375 299.425781 96.714844 297.949219 93.671875 C 297.859375 93.488281 297.949219 93.210938 298.136719 93.023438 C 298.320312 92.933594 298.597656 93.023438 298.78125 93.210938 C 300.441406 96.527344 300.71875 99.203125 299.703125 101.230469 C 299.152344 102.335938 297.765625 103.8125 294.8125 104.457031 L 294.71875 104.457031 C 294.628906 104.550781 294.628906 104.550781 294.628906 104.550781 Z M 294.628906 104.550781 " fill-opacity="1" fill-rule="nonzero"/><path fill="#1a2539" d="M 314.195312 93.949219 C 310.964844 93.949219 307.734375 92.65625 306.347656 91.640625 C 301.917969 88.507812 297.859375 90.257812 297.671875 90.257812 C 297.398438 90.351562 297.210938 90.257812 297.027344 89.984375 C 296.933594 89.707031 297.027344 89.523438 297.304688 89.335938 C 297.488281 89.246094 302.011719 87.308594 306.902344 90.71875 C 308.5625 91.917969 314.195312 93.949219 318.070312 92.011719 C 320.5625 90.71875 321.945312 87.953125 321.945312 83.714844 C 321.945312 83.4375 322.132812 83.25 322.40625 83.25 C 322.683594 83.25 322.871094 83.4375 322.871094 83.714844 C 322.871094 88.230469 321.394531 91.367188 318.53125 92.75 C 317.148438 93.671875 315.671875 93.949219 314.195312 93.949219 Z M 314.195312 93.949219 " fill-opacity="1" fill-rule="nonzero"/><path fill="#1a2539" d="M 284.476562 98.742188 C 284.382812 98.742188 284.199219 98.648438 284.105469 98.558594 C 280.96875 94.5 279.863281 90.996094 280.691406 87.953125 C 281.890625 84.082031 285.953125 82.605469 286.136719 82.605469 C 286.414062 82.515625 286.597656 82.699219 286.691406 82.882812 C 286.785156 83.160156 286.691406 83.34375 286.414062 83.4375 C 286.414062 83.4375 282.539062 84.820312 281.523438 88.230469 C 280.691406 90.90625 281.800781 94.222656 284.753906 97.910156 C 284.9375 98.097656 284.84375 98.375 284.660156 98.558594 C 284.660156 98.648438 284.566406 98.742188 284.476562 98.742188 Z M 284.476562 98.742188 " fill-opacity="1" fill-rule="nonzero"/><path fill="#1a2539" d="M 298.6875 133.871094 C 291.582031 133.871094 284.660156 124.742188 284.292969 124.375 C 284.105469 124.191406 284.199219 123.914062 284.382812 123.730469 C 284.570312 123.542969 284.84375 123.636719 285.03125 123.820312 C 285.121094 123.914062 292.597656 133.777344 299.519531 132.949219 C 302.65625 132.582031 305.332031 129.90625 307.273438 125.203125 C 307.363281 124.925781 307.640625 124.835938 307.917969 124.925781 C 308.195312 125.019531 308.289062 125.296875 308.195312 125.574219 C 306.074219 130.644531 303.210938 133.410156 299.703125 133.871094 C 299.335938 133.871094 298.964844 133.871094 298.6875 133.871094 Z M 298.6875 133.871094 " fill-opacity="1" fill-rule="nonzero"/><path fill="#1a2539" d="M 41.933594 120.6875 C 41.839844 120.6875 41.75 120.6875 41.65625 120.59375 C 41.472656 120.410156 41.378906 120.132812 41.566406 119.949219 C 41.65625 119.855469 43.871094 116.722656 45.996094 116.722656 C 46.734375 116.722656 47.472656 117.089844 48.023438 117.828125 C 48.210938 118.011719 48.117188 118.289062 47.933594 118.472656 C 47.75 118.65625 47.472656 118.566406 47.285156 118.382812 C 46.917969 117.917969 46.457031 117.644531 46.085938 117.644531 C 44.703125 117.644531 42.949219 119.671875 42.394531 120.5 C 42.210938 120.59375 42.117188 120.6875 41.933594 120.6875 Z M 41.933594 120.6875 " fill-opacity="1" fill-rule="nonzero"/><path fill="#1a2539" d="M 36.121094 120.039062 C 35.933594 120.039062 35.75 119.949219 35.660156 119.671875 C 35.289062 118.566406 34.644531 118.566406 34.644531 118.65625 C 34.367188 118.65625 34.179688 118.472656 34.089844 118.289062 C 34.089844 118.011719 34.273438 117.828125 34.457031 117.734375 C 35.011719 117.644531 36.027344 117.921875 36.488281 119.488281 C 36.582031 119.765625 36.398438 119.949219 36.121094 120.039062 C 36.210938 120.039062 36.121094 120.039062 36.121094 120.039062 Z M 36.121094 120.039062 " fill-opacity="1" fill-rule="nonzero"/><path fill="#1a2539" d="M 50.242188 113.125 C 50.054688 113.125 49.777344 112.941406 49.777344 112.757812 C 48.949219 107.683594 46.457031 105.65625 45.070312 104.917969 C 45.441406 106.027344 45.808594 107.871094 44.796875 109.53125 C 43.410156 111.835938 39.8125 112.847656 34.179688 112.570312 C 33.90625 112.570312 33.71875 112.386719 33.71875 112.109375 C 33.71875 111.835938 33.90625 111.648438 34.179688 111.648438 C 39.351562 111.925781 42.765625 111.003906 43.964844 109.070312 C 45.257812 107.039062 43.78125 104.367188 43.78125 104.367188 C 43.6875 104.183594 43.6875 103.996094 43.78125 103.90625 C 43.871094 103.722656 44.058594 103.722656 44.242188 103.722656 C 44.425781 103.8125 49.316406 104.917969 50.609375 112.664062 C 50.703125 112.847656 50.609375 113.03125 50.242188 113.125 C 50.332031 113.125 50.242188 113.125 50.242188 113.125 Z M 50.242188 113.125 " fill-opacity="1" fill-rule="nonzero"/><path fill="#1a2539" d="M 32.703125 118.382812 C 32.519531 118.382812 32.429688 118.289062 32.335938 118.195312 C 28.644531 112.386719 27.628906 107.777344 29.382812 104.734375 C 31.78125 100.492188 38.425781 100.585938 38.703125 100.585938 C 38.980469 100.585938 39.164062 100.769531 39.164062 101.046875 C 39.164062 101.324219 38.980469 101.507812 38.703125 101.507812 C 38.613281 101.507812 32.335938 101.414062 30.121094 105.195312 C 28.550781 107.960938 29.566406 112.203125 33.074219 117.734375 C 33.167969 117.921875 33.167969 118.195312 32.890625 118.382812 C 32.890625 118.289062 32.796875 118.382812 32.703125 118.382812 Z M 32.703125 118.382812 " fill-opacity="1" fill-rule="nonzero"/><path fill="#1a2539" d="M 64.730469 177.667969 C 64.636719 177.667969 64.636719 177.667969 64.546875 177.667969 C 52.179688 172.78125 53.378906 159.503906 54.117188 150.742188 C 54.300781 148.253906 54.484375 146.132812 54.394531 144.566406 C 53.378906 132.210938 55.039062 129.628906 55.132812 129.539062 C 55.316406 129.351562 55.59375 129.261719 55.777344 129.445312 C 55.960938 129.628906 56.054688 129.90625 55.871094 130.089844 C 55.871094 130.183594 54.300781 132.855469 55.316406 144.566406 C 55.410156 146.226562 55.222656 148.4375 55.039062 150.929688 C 54.207031 159.964844 53.195312 172.226562 64.914062 176.929688 C 65.191406 177.023438 65.285156 177.296875 65.191406 177.484375 C 65.097656 177.574219 64.914062 177.667969 64.730469 177.667969 Z M 64.730469 177.667969 " fill-opacity="1" fill-rule="nonzero"/><path fill="#1a2539" d="M 32.429688 177.667969 C 32.335938 177.667969 32.242188 177.667969 32.152344 177.574219 C 29.75 176.097656 28.183594 174.070312 27.535156 171.488281 C 25.691406 163.746094 32.335938 153.324219 35.195312 148.808594 C 35.472656 148.347656 35.75 147.886719 35.933594 147.609375 C 38.148438 143.921875 38.613281 135.621094 38.613281 135.53125 C 38.613281 135.253906 38.886719 135.070312 39.074219 135.070312 C 39.351562 135.070312 39.535156 135.347656 39.535156 135.53125 C 39.535156 135.898438 39.074219 144.105469 36.671875 148.070312 C 36.488281 148.347656 36.210938 148.808594 35.933594 149.359375 C 33.167969 153.695312 26.707031 163.929688 28.367188 171.304688 C 28.921875 173.609375 30.304688 175.546875 32.519531 176.835938 C 32.703125 176.929688 32.796875 177.207031 32.703125 177.484375 C 32.703125 177.574219 32.519531 177.667969 32.429688 177.667969 Z M 32.429688 177.667969 " fill-opacity="1" fill-rule="nonzero"/><path fill="#1a2539" d="M 89.925781 182.738281 C 89.832031 182.738281 89.648438 182.644531 89.554688 182.554688 C 89.371094 182.371094 89.464844 182.09375 89.648438 181.910156 C 99.0625 174.53125 94.171875 156.738281 90.019531 150.742188 C 85.679688 144.472656 79.867188 135.070312 72.851562 117.917969 C 64.824219 97.175781 56.886719 99.386719 56.792969 99.480469 C 56.515625 99.570312 56.332031 99.386719 56.238281 99.203125 C 56.148438 98.925781 56.332031 98.742188 56.515625 98.648438 C 56.886719 98.558594 65.375 95.976562 73.683594 117.644531 C 80.605469 134.699219 86.417969 144.011719 90.664062 150.28125 C 94.910156 156.460938 99.894531 174.992188 90.109375 182.738281 C 90.109375 182.738281 90.019531 182.738281 89.925781 182.738281 Z M 89.925781 182.738281 " fill-opacity="1" fill-rule="nonzero"/><path fill="#ffffff" d="M 359.230469 339.296875 C 359.046875 339.296875 358.863281 339.207031 358.769531 339.019531 L 317.886719 221.925781 C 317.792969 221.648438 317.886719 221.464844 318.164062 221.371094 C 318.4375 221.277344 318.625 221.371094 318.714844 221.648438 L 359.601562 338.742188 C 359.695312 339.019531 359.601562 339.207031 359.324219 339.296875 C 359.324219 339.296875 359.324219 339.296875 359.230469 339.296875 Z M 359.230469 339.296875 " fill-opacity="1" fill-rule="nonzero"/><path fill="#ffffff" d="M 316.222656 337.820312 C 316.039062 337.820312 315.855469 337.730469 315.761719 337.546875 L 300.71875 293.933594 C 300.628906 293.65625 300.71875 293.472656 300.996094 293.378906 C 301.273438 293.289062 301.457031 293.378906 301.550781 293.65625 L 316.59375 337.269531 C 316.6875 337.546875 316.59375 337.730469 316.316406 337.820312 C 316.316406 337.820312 316.222656 337.820312 316.222656 337.820312 Z M 316.222656 337.820312 " fill-opacity="1" fill-rule="nonzero"/><path fill="#1a2539" d="M 276.722656 207.632812 C 272.109375 207.632812 267.863281 206.527344 264.078125 203.761719 C 255.773438 194.910156 256.789062 177.945312 257.25 175.175781 C 257.34375 174.902344 257.527344 174.808594 257.804688 174.808594 C 258.082031 174.902344 258.265625 175.085938 258.171875 175.363281 C 257.710938 178.035156 256.695312 194.539062 264.632812 203.113281 C 282.167969 216.023438 312.902344 191.957031 319.640625 184.398438 C 325.546875 177.667969 325.914062 177.207031 326.375 177.484375 C 329.699219 177.390625 334.960938 172.6875 338.097656 169.921875 C 338.742188 169.277344 339.390625 168.816406 339.851562 168.445312 C 342.34375 166.324219 342.433594 164.667969 342.433594 164.667969 C 342.433594 164.390625 342.621094 164.207031 342.898438 164.207031 C 343.171875 164.207031 343.359375 164.390625 343.359375 164.667969 C 343.359375 164.757812 343.359375 166.785156 340.40625 169.183594 C 339.941406 169.554688 339.390625 170.105469 338.652344 170.660156 C 335.144531 173.792969 329.882812 178.496094 326.191406 178.496094 C 325.824219 178.867188 324.621094 180.15625 320.285156 185.136719 C 315.023438 191.035156 294.167969 207.632812 276.722656 207.632812 Z M 276.722656 207.632812 " fill-opacity="1" fill-rule="nonzero"/><path fill="#1a2539" d="M 333.296875 169.554688 C 333.113281 169.554688 333.019531 169.460938 332.929688 169.367188 C 332.835938 169.183594 332.835938 168.90625 333.113281 168.722656 L 342.160156 163.191406 C 342.34375 163.097656 342.621094 163.097656 342.804688 163.375 C 342.898438 163.558594 342.898438 163.835938 342.621094 164.019531 L 333.574219 169.554688 C 333.390625 169.460938 333.390625 169.554688 333.296875 169.554688 Z M 333.296875 169.554688 " fill-opacity="1" fill-rule="nonzero"/><path fill="#1a2539" d="M 332.191406 165.863281 C 332.007812 165.863281 331.820312 165.773438 331.820312 165.589844 C 331.730469 165.402344 331.820312 165.128906 332.007812 164.941406 L 341.972656 159.871094 C 342.160156 159.78125 342.433594 159.871094 342.621094 160.054688 C 342.710938 160.242188 342.621094 160.515625 342.433594 160.703125 L 332.46875 165.773438 C 332.375 165.773438 332.28125 165.863281 332.191406 165.863281 Z M 332.191406 165.863281 " fill-opacity="1" fill-rule="nonzero"/><path fill="#1a2539" d="M 331.730469 162.175781 C 331.542969 162.175781 331.359375 162.085938 331.269531 161.898438 C 331.175781 161.714844 331.269531 161.4375 331.453125 161.253906 L 341.605469 156.460938 C 341.789062 156.367188 342.066406 156.460938 342.25 156.644531 C 342.34375 156.828125 342.25 157.105469 342.066406 157.289062 L 331.914062 162.085938 C 331.820312 162.175781 331.820312 162.175781 331.730469 162.175781 Z M 331.730469 162.175781 " fill-opacity="1" fill-rule="nonzero"/><path fill="#1a2539" d="M 280.324219 188.730469 C 280.230469 188.730469 280.136719 188.730469 280.046875 188.640625 C 279.863281 188.546875 279.769531 188.269531 279.863281 187.992188 L 283.554688 181.722656 C 283.644531 181.539062 283.921875 181.445312 284.199219 181.539062 C 284.382812 181.632812 284.476562 181.910156 284.382812 182.183594 L 280.691406 188.453125 C 280.691406 188.640625 280.507812 188.730469 280.324219 188.730469 Z M 280.324219 188.730469 " fill-opacity="1" fill-rule="nonzero"/><path fill="#1a2539" d="M 271.554688 177.945312 C 266.570312 177.945312 260.480469 176.929688 253.28125 173.886719 C 253.003906 173.792969 252.914062 173.519531 253.003906 173.242188 C 253.097656 172.964844 253.375 172.871094 253.652344 172.964844 C 274.324219 181.539062 285.492188 173.609375 286.875 172.503906 L 288.261719 150.742188 C 288.261719 150.46875 288.535156 150.28125 288.722656 150.28125 C 289 150.28125 289.183594 150.558594 289.183594 150.742188 L 287.796875 172.6875 C 287.796875 172.78125 287.707031 172.964844 287.613281 172.964844 C 287.523438 173.332031 282.078125 177.945312 271.554688 177.945312 Z M 271.554688 177.945312 " fill-opacity="1" fill-rule="nonzero"/><path fill="#1a2539" d="M 329.421875 200.257812 C 329.238281 200.257812 329.054688 200.070312 328.960938 199.886719 C 328.316406 197.121094 326.46875 190.113281 323.699219 180.25 C 323.609375 179.972656 323.792969 179.789062 323.976562 179.695312 C 324.253906 179.601562 324.4375 179.789062 324.53125 179.972656 C 327.300781 189.835938 329.144531 196.84375 329.792969 199.703125 C 329.882812 199.980469 329.699219 200.164062 329.421875 200.257812 C 329.515625 200.257812 329.421875 200.257812 329.421875 200.257812 Z M 329.421875 200.257812 " fill-opacity="1" fill-rule="nonzero"/><path fill="#1a2539" d="M 318.902344 161.898438 C 318.714844 161.898438 318.53125 161.808594 318.4375 161.53125 C 315.949219 152.863281 314.101562 146.316406 314.101562 146.316406 C 314.007812 146.042969 314.195312 145.855469 314.378906 145.765625 C 314.65625 145.671875 314.839844 145.855469 314.933594 146.042969 C 314.933594 146.042969 316.871094 152.679688 319.269531 161.253906 C 319.363281 161.53125 319.175781 161.714844 318.992188 161.808594 C 318.992188 161.898438 318.902344 161.898438 318.902344 161.898438 Z M 318.902344 161.898438 " fill-opacity="1" fill-rule="nonzero"/><path fill="#1a2539" d="M 372.523438 147.976562 C 372.429688 147.976562 372.246094 147.886719 372.152344 147.792969 C 370.859375 146.226562 370.398438 145.582031 370.214844 145.304688 C 368 144.382812 367.816406 141.800781 367.722656 141.707031 C 367.722656 141.429688 367.90625 141.246094 368.183594 141.246094 C 368.460938 141.246094 368.644531 141.429688 368.644531 141.707031 C 368.644531 141.800781 368.832031 143.921875 370.675781 144.566406 C 370.769531 144.660156 370.953125 144.75 370.953125 144.84375 C 371.136719 145.121094 372.0625 146.316406 372.890625 147.332031 C 373.074219 147.515625 372.984375 147.792969 372.800781 147.976562 C 372.707031 147.976562 372.613281 147.976562 372.523438 147.976562 Z M 372.523438 147.976562 " fill-opacity="1" fill-rule="nonzero"/><path fill="#1a2539" d="M 375.84375 146.59375 C 375.753906 146.59375 375.566406 146.503906 375.476562 146.410156 L 368.738281 139.21875 C 368.554688 139.035156 368.554688 138.757812 368.738281 138.574219 C 368.921875 138.390625 369.199219 138.390625 369.382812 138.574219 L 376.121094 145.765625 C 376.304688 145.949219 376.304688 146.226562 376.121094 146.410156 C 376.121094 146.59375 376.027344 146.59375 375.84375 146.59375 Z M 375.84375 146.59375 " fill-opacity="1" fill-rule="nonzero"/><path fill="#1a2539" d="M 376.953125 143.089844 C 376.859375 143.089844 376.675781 143 376.582031 142.90625 L 370.769531 136.269531 C 370.585938 136.082031 370.585938 135.808594 370.769531 135.621094 C 370.953125 135.4375 371.230469 135.4375 371.414062 135.621094 L 377.230469 142.261719 C 377.414062 142.445312 377.414062 142.722656 377.230469 142.90625 C 377.136719 143.089844 377.042969 143.089844 376.953125 143.089844 Z M 376.953125 143.089844 " fill-opacity="1" fill-rule="nonzero"/><path fill="#1a2539" d="M 378.613281 140.96875 C 378.429688 140.96875 378.335938 140.878906 378.246094 140.785156 L 372.984375 133.410156 C 372.800781 133.226562 372.890625 132.949219 373.074219 132.765625 C 373.261719 132.582031 373.539062 132.671875 373.722656 132.855469 L 378.984375 140.234375 C 379.167969 140.417969 379.074219 140.695312 378.890625 140.878906 C 378.796875 140.878906 378.707031 140.96875 378.613281 140.96875 Z M 378.613281 140.96875 " fill-opacity="1" fill-rule="nonzero"/><path fill="#ffffff" d="M 288.535156 233.632812 C 288.351562 233.632812 288.167969 233.449219 288.074219 233.265625 C 287.984375 232.988281 288.167969 232.804688 288.445312 232.710938 C 298.410156 230.40625 298.503906 219.15625 298.503906 219.066406 C 298.503906 218.789062 298.6875 218.605469 298.964844 218.605469 C 299.242188 218.605469 299.425781 218.789062 299.425781 219.066406 C 299.425781 219.15625 299.335938 231.144531 288.535156 233.632812 Z M 288.535156 233.632812 " fill-opacity="1" fill-rule="nonzero"/><path fill="#ffffff" d="M 329.699219 351.007812 C 329.515625 351.007812 329.328125 350.914062 329.238281 350.730469 L 282.445312 217.3125 C 282.351562 217.039062 282.445312 216.851562 282.722656 216.761719 C 283 216.667969 283.183594 216.761719 283.277344 217.039062 L 330.066406 350.453125 C 330.160156 350.730469 330.066406 350.914062 329.792969 351.007812 C 329.792969 351.007812 329.792969 351.007812 329.699219 351.007812 Z M 329.699219 351.007812 " fill-opacity="1" fill-rule="nonzero"/></svg>